<svg width="68" height="68" viewBox="0 0 68 68" fill="none" xmlns="http://www.w3.org/2000/svg">
<rect width="68" height="68" rx="34" fill="#FFF4DF"/>
<path d="M30.2812 22.3125C29.1444 22.3125 28.1541 22.9585 27.5251 23.8404C26.8961 24.7223 26.5625 25.8612 26.5625 27.0938C26.5625 28.3263 26.8961 29.4663 27.5251 30.3482C28.1541 31.2301 29.1444 31.875 30.2812 31.875C31.4181 31.875 32.4084 31.229 33.0374 30.3471C33.6664 29.4653 34 28.3263 34 27.0938C34 25.8612 33.6664 24.7212 33.0374 23.8393C32.4084 22.9574 31.4181 22.3125 30.2812 22.3125ZM34 27.0938C34 28.3263 34.3336 29.4663 34.9626 30.3482C35.5916 31.2301 36.5829 31.875 37.7188 31.875C38.8556 31.875 39.8459 31.229 40.4749 30.3471C41.1039 29.4653 41.4375 28.3263 41.4375 27.0938C41.4375 25.8612 41.1039 24.7212 40.4749 23.8393C39.8459 22.9574 38.8556 22.3125 37.7188 22.3125C36.5819 22.3125 35.5916 22.9585 34.9626 23.8404C34.3336 24.7223 34 25.8612 34 27.0938ZM30.2812 24.4375C30.6128 24.4375 30.9783 24.6032 31.3119 25.0686C31.6413 25.5329 31.875 26.2724 31.875 27.0938C31.875 27.9151 31.6413 28.6556 31.3119 29.1189C30.9783 29.5842 30.6128 29.75 30.2812 29.75C29.9497 29.75 29.5842 29.5842 29.2506 29.1189C28.9212 28.6546 28.6875 27.9151 28.6875 27.0938C28.6875 26.2724 28.9212 25.5319 29.2506 25.0686C29.5842 24.6032 29.9497 24.4375 30.2812 24.4375ZM37.7188 24.4375C38.0502 24.4375 38.4157 24.6032 38.7494 25.0686C39.0787 25.5329 39.3125 26.2724 39.3125 27.0938C39.3125 27.9151 39.0787 28.6556 38.7494 29.1189C38.4157 29.5842 38.0502 29.75 37.7188 29.75C37.3873 29.75 37.0218 29.5842 36.6881 29.1189C36.3588 28.6546 36.125 27.9151 36.125 27.0938C36.125 26.2724 36.3588 25.5319 36.6881 25.0686C37.0218 24.6032 37.3873 24.4375 37.7188 24.4375ZM24.9688 29.75C23.8319 29.75 22.8416 30.396 22.2126 31.2779C21.5836 32.1597 21.25 33.2987 21.25 34.5312C21.25 35.7638 21.5836 36.9038 22.2126 37.7857C22.8416 38.6676 23.8319 39.3125 24.9688 39.3125C26.1056 39.3125 27.0959 38.6665 27.7249 37.7846C28.3539 36.9028 28.6875 35.7638 28.6875 34.5312C28.6875 33.2987 28.3539 32.1587 27.7249 31.2768C27.0959 30.3949 26.1056 29.75 24.9688 29.75ZM43.0312 29.75C41.8944 29.75 40.9041 30.396 40.2751 31.2779C39.6461 32.1597 39.3125 33.2987 39.3125 34.5312C39.3125 35.7638 39.6461 36.9038 40.2751 37.7857C40.9041 38.6676 41.8944 39.3125 43.0312 39.3125C44.1681 39.3125 45.1584 38.6665 45.7874 37.7846C46.4164 36.9028 46.75 35.7638 46.75 34.5312C46.75 33.2987 46.4164 32.1587 45.7874 31.2768C45.1584 30.3949 44.1681 29.75 43.0312 29.75ZM24.9688 31.875C25.3003 31.875 25.6658 32.0407 25.9994 32.5061C26.3288 32.9704 26.5625 33.7099 26.5625 34.5312C26.5625 35.3526 26.3288 36.0931 25.9994 36.5564C25.6658 37.0218 25.3003 37.1875 24.9688 37.1875C24.6372 37.1875 24.2718 37.0218 23.9381 36.5564C23.6088 36.0931 23.375 35.3526 23.375 34.5312C23.375 33.7099 23.6088 32.9694 23.9381 32.5061C24.2718 32.0407 24.6372 31.875 24.9688 31.875ZM43.0312 31.875C43.3627 31.875 43.7282 32.0407 44.0619 32.5061C44.3912 32.9704 44.625 33.7099 44.625 34.5312C44.625 35.3526 44.3912 36.0931 44.0619 36.5564C43.7282 37.0218 43.3627 37.1875 43.0312 37.1875C42.6998 37.1875 42.3343 37.0218 42.0006 36.5564C41.6713 36.0921 41.4375 35.3526 41.4375 34.5312C41.4375 33.7099 41.6713 32.9694 42.0006 32.5061C42.3343 32.0407 42.6998 31.875 43.0312 31.875ZM34 34C32.5837 34 31.5956 34.9191 31.11 35.7266C30.6276 36.5341 30.3301 37.2056 30.0475 37.4861C29.8849 37.6529 28.8596 38.0386 27.7908 38.5836C27.2563 38.8567 26.7176 39.2211 26.2639 39.7789C25.8071 40.3368 25.4989 41.1071 25.4989 41.9709C25.4989 44.0109 27.1777 45.6896 29.2177 45.6896C30.1378 45.6896 31.0983 45.3921 32.0386 45.1265C32.9832 44.8545 34 44.625 34 44.625C34 44.625 35.0168 44.8545 35.9592 45.1244C36.9006 45.39 37.8611 45.6875 38.7812 45.6875C40.8212 45.6875 42.5 44.0087 42.5 41.9688C42.5 41.1251 42.1887 40.3537 41.735 39.8119C41.2834 39.2668 40.7394 38.93 40.2092 38.6484C39.1467 38.0853 38.1023 37.6391 37.9514 37.4861C37.6964 37.2343 37.4096 36.5404 36.9208 35.7287C36.4331 34.9138 35.4237 34 34 34ZM34 36.125C34.7013 36.125 34.7788 36.295 35.0944 36.822C35.4131 37.3479 35.6511 38.2415 36.4225 39.0139C37.2991 39.8852 38.4062 40.0764 39.2126 40.5057C39.6164 40.7203 39.9245 40.9487 40.1094 41.1697C40.2932 41.3897 40.375 41.5905 40.375 41.9666C40.375 42.8591 39.6737 43.5604 38.7812 43.5604C38.4731 43.5604 37.4808 43.3266 36.5564 43.061C35.632 42.7986 34.867 42.4979 34 42.4979C33.133 42.4979 32.368 42.7986 31.4436 43.061C30.5192 43.3266 29.5269 43.5604 29.2188 43.5604C28.3263 43.5604 27.625 42.8591 27.625 41.9666C27.625 41.5384 27.7143 41.3185 27.8906 41.1017C28.067 40.8861 28.3921 40.6725 28.7874 40.4717C29.5779 40.0679 30.6786 39.9086 31.5764 39.0107C32.3552 38.2277 32.589 37.3054 32.9046 36.7848C33.2148 36.2642 33.2892 36.1208 33.9989 36.1208L34 36.125Z" fill="#F6B83D"/>
</svg>
